<?xml version="1.0" encoding="UTF-8"?><svg id="Layer_1" xmlns="http://www.w3.org/2000/svg" viewBox="0 0 277.07 85.07"><defs><style>.cls-1{fill:#a7ceca;}.cls-2{fill:#e4c9c6;}</style></defs><path class="cls-2" d="M226.11,67.57c0-.6.11-1.19.32-1.79.21-.59.53-1.12.95-1.6s.92-.85,1.52-1.14c.6-.29,1.27-.43,2.03-.43.91,0,1.68.2,2.32.6.64.4,1.13.92,1.46,1.57l-1.23.83c-.14-.3-.31-.55-.5-.76-.2-.21-.41-.37-.64-.49-.23-.12-.48-.21-.73-.26-.25-.05-.49-.08-.73-.08-.52,0-.98.1-1.37.31s-.72.49-.99.83c-.27.35-.47.73-.6,1.16-.14.43-.2.86-.2,1.29,0,.49.08.95.24,1.39.16.44.38.83.67,1.16.28.34.62.6,1.01.8.39.2.82.3,1.29.3.24,0,.49-.03.75-.09s.5-.16.74-.29c.24-.14.46-.31.66-.51.2-.21.37-.45.5-.74l1.3.74c-.16.37-.38.7-.67.99-.29.29-.62.53-.98.72-.36.2-.75.34-1.16.45-.41.1-.8.15-1.2.15-.7,0-1.34-.15-1.92-.45-.58-.3-1.08-.69-1.5-1.17-.42-.48-.75-1.03-.98-1.64s-.35-1.23-.35-1.87Z"/><path class="cls-2" d="M236.14,62.39h1.54v8.11c0,.27.07.48.21.64.14.15.34.23.59.23.1,0,.22-.02.36-.06.14-.04.26-.08.38-.13l.22,1.2c-.22.1-.49.18-.8.25-.31.06-.58.09-.83.09-.53,0-.95-.14-1.24-.43-.29-.29-.44-.7-.44-1.23v-8.67Z"/><path class="cls-2" d="M240.33,64.09v-1.69h1.54v1.69h-1.54ZM240.33,72.61v-7.32h1.54v7.32h-1.54Z"/><path class="cls-2" d="M250.29,72.61h-1.54v-4.1c0-.69-.11-1.19-.33-1.51-.22-.31-.54-.47-.97-.47-.22,0-.45.04-.67.13-.22.08-.43.2-.63.36-.2.15-.37.34-.52.55-.15.21-.27.44-.36.69v4.35h-1.54v-7.32h1.4v1.47c.28-.5.69-.88,1.22-1.17s1.12-.43,1.76-.43c.44,0,.8.08,1.08.24s.5.38.67.65c.16.28.28.59.34.95.07.36.1.74.1,1.14v4.47Z"/><path class="cls-2" d="M252.08,64.09v-1.69h1.54v1.69h-1.54ZM252.08,72.61v-7.32h1.54v7.32h-1.54Z"/><path class="cls-2" d="M254.99,68.95c0-.51.09-1,.27-1.46s.43-.86.76-1.2c.33-.35.73-.62,1.2-.82s.99-.3,1.57-.3c.76,0,1.41.17,1.95.5.55.33.95.77,1.22,1.32l-1.5.48c-.18-.31-.42-.55-.71-.72s-.63-.26-.99-.26c-.31,0-.59.06-.86.18-.27.12-.5.29-.69.51-.2.22-.35.48-.46.78-.11.3-.17.63-.17.99s.06.68.17.99c.12.3.28.57.48.79.2.22.43.4.7.52.27.13.55.19.85.19.19,0,.37-.03.56-.08.19-.05.36-.12.51-.22.15-.09.29-.2.41-.32.12-.12.2-.25.26-.39l1.51.45c-.24.55-.65,1-1.22,1.35-.57.35-1.24.52-2.02.52-.57,0-1.09-.1-1.55-.31-.47-.21-.87-.48-1.2-.83-.33-.35-.59-.75-.77-1.21-.18-.46-.27-.94-.27-1.46Z"/><path class="cls-2" d="M265.95,72.75c-.59,0-1.17-.1-1.76-.29-.58-.19-1.08-.46-1.5-.82l.62-.98c.44.32.87.56,1.3.72.43.16.87.24,1.32.24s.82-.09,1.08-.27c.27-.18.4-.43.4-.76,0-.31-.15-.53-.45-.67-.3-.14-.77-.29-1.4-.46-.46-.12-.85-.24-1.18-.35-.33-.11-.59-.24-.8-.39s-.35-.32-.45-.52c-.09-.2-.14-.43-.14-.71,0-.37.07-.7.22-.99.14-.29.35-.53.6-.73s.56-.35.9-.46c.35-.1.72-.15,1.12-.15.55,0,1.06.08,1.54.25.48.17.9.41,1.27.73l-.66.92c-.68-.54-1.4-.81-2.17-.81-.39,0-.72.08-.99.25-.27.16-.4.42-.4.78,0,.15.03.28.08.38.06.1.15.19.27.27.13.08.29.14.49.2.2.06.45.13.75.2.49.12.92.24,1.28.36s.66.26.89.43.41.35.52.57c.11.22.17.48.17.79,0,.7-.26,1.25-.79,1.66-.53.41-1.24.61-2.15.61Z"/><path class="cls-1" d="M33.26,56.13h-2.25L10.41,24.73v31.4h-2.25V21.08h2.25l20.6,31.3v-31.3h2.25v35.05Z"/><path class="cls-1" d="M68.36,43.43h-23.45c.07,2.43.6,4.48,1.6,6.15,1,1.67,2.32,2.92,3.95,3.75,1.63.83,3.42,1.25,5.35,1.25,2.67,0,4.9-.66,6.7-1.98,1.8-1.32,2.93-3.11,3.4-5.38h2.35c-.53,2.77-1.9,5.01-4.1,6.73s-4.98,2.57-8.35,2.57c-2.53,0-4.8-.57-6.8-1.7-2-1.13-3.57-2.76-4.7-4.88-1.13-2.12-1.7-4.59-1.7-7.43s.56-5.3,1.67-7.4c1.12-2.1,2.67-3.71,4.67-4.83,2-1.12,4.28-1.67,6.85-1.67s4.86.56,6.77,1.67c1.92,1.12,3.38,2.6,4.38,4.45s1.5,3.84,1.5,5.98c0,1.2-.03,2.1-.1,2.7ZM64.93,35.48c-.95-1.67-2.24-2.91-3.88-3.73-1.63-.82-3.4-1.23-5.3-1.23s-3.66.41-5.28,1.23c-1.62.82-2.93,2.06-3.95,3.73-1.02,1.67-1.56,3.7-1.62,6.1h21.3c.1-2.4-.32-4.43-1.27-6.1Z"/><path class="cls-1" d="M113.26,28.98l-8.55,27.15h-2.15l-8.65-24.05-8.7,24.05h-2.15l-8.55-27.15h2.35l7.3,24.6,8.7-24.6h2.15l8.65,24.5,7.3-24.5h2.3Z"/><path class="cls-1" d="M147.21,21.03l-13.4,35.1h-2.5l-13.35-35.1h2.45l12.15,32.45,12.25-32.45h2.4Z"/><path class="cls-1" d="M154.96,22.4c-.37-.35-.55-.82-.55-1.42,0-.57.18-1.03.55-1.4.37-.37.82-.55,1.35-.55s.98.18,1.35.55c.37.37.55.83.55,1.4,0,.6-.18,1.07-.55,1.42-.37.35-.82.52-1.35.52s-.98-.17-1.35-.52ZM157.41,28.98v27.15h-2.25v-27.15h2.25Z"/><path class="cls-1" d="M169.78,54.53c-1.92-1.33-2.99-3.23-3.22-5.7h2.3c.17,1.77.97,3.17,2.42,4.2,1.45,1.03,3.42,1.55,5.92,1.55,2.07,0,3.71-.53,4.93-1.58,1.22-1.05,1.82-2.34,1.82-3.88,0-1.07-.32-1.94-.97-2.62-.65-.68-1.46-1.21-2.42-1.58-.97-.37-2.28-.77-3.95-1.2-2-.53-3.62-1.06-4.85-1.58-1.23-.52-2.28-1.29-3.15-2.32-.87-1.03-1.3-2.42-1.3-4.15,0-1.27.38-2.44,1.15-3.52.77-1.08,1.83-1.94,3.2-2.57,1.37-.63,2.92-.95,4.65-.95,2.83,0,5.12.71,6.88,2.12,1.75,1.42,2.69,3.38,2.83,5.88h-2.25c-.1-1.8-.8-3.27-2.1-4.4-1.3-1.13-3.1-1.7-5.4-1.7-1.93,0-3.53.5-4.8,1.5s-1.9,2.22-1.9,3.65c0,1.27.36,2.29,1.08,3.08.72.78,1.6,1.38,2.65,1.8,1.05.42,2.44.86,4.17,1.33,1.9.5,3.43.99,4.58,1.48,1.15.48,2.12,1.18,2.92,2.1.8.92,1.2,2.14,1.2,3.67,0,1.4-.38,2.67-1.15,3.8-.77,1.13-1.83,2.02-3.2,2.65-1.37.63-2.9.95-4.6.95-3.03,0-5.51-.67-7.42-2Z"/><path class="cls-1" d="M195.31,22.4c-.37-.35-.55-.82-.55-1.42,0-.57.18-1.03.55-1.4.37-.37.82-.55,1.35-.55s.98.18,1.35.55c.37.37.55.83.55,1.4,0,.6-.18,1.07-.55,1.42-.37.35-.82.52-1.35.52s-.98-.17-1.35-.52ZM197.76,28.98v27.15h-2.25v-27.15h2.25Z"/><path class="cls-1" d="M213.61,54.83c-2.03-1.13-3.62-2.76-4.78-4.88-1.15-2.12-1.72-4.59-1.72-7.43s.58-5.26,1.75-7.38c1.17-2.12,2.78-3.73,4.83-4.85,2.05-1.12,4.34-1.67,6.88-1.67s4.82.56,6.85,1.67c2.03,1.12,3.62,2.73,4.78,4.83,1.15,2.1,1.72,4.57,1.72,7.4s-.58,5.31-1.75,7.43c-1.17,2.12-2.77,3.74-4.83,4.88-2.05,1.13-4.34,1.7-6.88,1.7s-4.82-.57-6.85-1.7ZM225.98,53.21c1.72-.88,3.09-2.23,4.12-4.03,1.03-1.8,1.55-4.02,1.55-6.65s-.52-4.8-1.55-6.6c-1.03-1.8-2.4-3.14-4.1-4.02-1.7-.88-3.53-1.32-5.5-1.32s-3.79.44-5.48,1.32c-1.68.88-3.04,2.23-4.08,4.02-1.03,1.8-1.55,4-1.55,6.6s.51,4.85,1.53,6.65c1.02,1.8,2.37,3.14,4.05,4.03,1.68.88,3.51,1.32,5.47,1.32s3.81-.44,5.53-1.32Z"/><path class="cls-1" d="M263.41,31.4c2.03,1.98,3.05,4.93,3.05,8.83v15.9h-2.2v-15.75c0-3.23-.82-5.71-2.45-7.42s-3.85-2.58-6.65-2.58-5.28.93-7.03,2.8c-1.75,1.87-2.62,4.63-2.62,8.3v14.65h-2.25v-27.15h2.25v5.75c.77-2.03,2.04-3.59,3.83-4.68,1.78-1.08,3.84-1.62,6.17-1.62,3.23,0,5.87.99,7.9,2.98Z"/><path class="cls-2" d="M208.53,15.6l2.74,1.63,2.69-1.7,2.77-1.3,2.6-.91s3.03-.83,4.39-.94,3.86-.22,5.19,0,3.93.8,3.93.8l4.32,1.23,3.64,1.27,3.47,1.3,2.04.87-2.81-1.63-2.33-1.3-2.28-1.16-2.16-1.01-2.74-1.16-2.28-.83-2.73-.76s-3.61-1.16-7.88-.11c-4.27,1.05-2.64.62-2.64.62l-1.55.54-2.11.87-2.23,1.09-1.84,1.12-1.99,1.27-.18.22Z"/></svg>