<?xml version="1.0" encoding="utf-8"?>
<!-- Generator: Adobe Illustrator 26.0.1, SVG Export Plug-In . SVG Version: 6.00 Build 0)  -->
<svg version="1.1" id="Layer_1" xmlns="http://www.w3.org/2000/svg" xmlns:xlink="http://www.w3.org/1999/xlink" x="0px" y="0px"
	 viewBox="0 0 342 150" style="enable-background:new 0 0 342 150;" xml:space="preserve">
<style type="text/css">
	.st0{fill:#B3B6B7;}
	.st1{fill:#8A2432;}
</style>
<path class="st0" d="M312.6,69.3L285,57.8L274,63l-12.8,4.5c0,0-16.4,5.4-25.4,7.1c-9,1.8-12.1,2.8-25.6,4.3
	c-13.5,1.5-24.5,2.6-33.7,3s-20,0.4-27.9,0S126,79.7,116,78.5s-16.6-2-23.8-3.3c-7.1-1.3-25.5-4-25.5-4L53.4,69l-14.6-3l-15.1-3.4
	L2,57.1l16.6,6.6c0,0,18.9,7,20.5,7.6c1.6,0.6,17.1,5.9,17.1,5.9L70.9,82l14.3,4.5l21.6,6l19.4,4.4l17.8,3.5l11.1,1.8
	c0,0,21.5,2.5,40.2,0.3c18.6-2.3,31.5-4.3,31.5-4.3l23.1-5.4l16.8-4.9l18.1-6.5l17.3-6.9l9.4-4.5L312.6,69.3z"/>
<path class="st1" d="M28.8,36l22.6,9l22.2-9.4l22.8-7.2l21.4-5c0,0,25-4.6,36.2-5.2c11.2-0.6,31.8-1.2,42.8,0
	c11,1.2,32.4,4.4,32.4,4.4l35.6,6.8l30,7l28.6,7.2l16.8,4.8l-23.2-9l-19.2-7.2L279,25.8l-17.8-5.6l-22.6-6.4l-18.8-4.6L197.3,5
	c0,0-29.8-6.4-65-0.6s-21.8,3.4-21.8,3.4l-12.8,3l-17.4,4.8l-18.4,6l-15.2,6.2l-16.4,7L28.8,36z"/>
<g>
	<path class="st1" d="M31.3,121.6h2.3l19.9,22.6v-22.6h2.2v25.9h-2l-20.1-22.9v22.9h-2.2V121.6z"/>
	<path class="st1" d="M68.9,147.9c-5.4,0-8.9-3.6-8.9-9.2c0-5.2,3.4-8.6,8.4-8.6c4.6,0,7.8,3.2,7.8,8.2c0,0,0,0,0,0.1h-14
		c0,0.1,0,0.1,0,0.2c0,4.6,2.9,7.5,6.8,7.5c2.5,0,4.6-0.8,6.9-2.5v2.1C73.5,147.2,71.3,147.9,68.9,147.9z M73.8,136.7
		c-0.4-3.1-2.7-5-5.6-5c-2.9,0-5.4,2-5.8,5H73.8z"/>
	<path class="st1" d="M77.3,130.4h2.1l5.9,14l5.7-14h1.1l5.3,14l6.3-14h2.2l-8,17.5h-1.1L91.6,134L86,147.9h-1.1L77.3,130.4z"/>
	<path class="st1" d="M107.3,121.6l9.3,21.7l9.4-21.7h2.3L116.8,148h-0.4L105,121.6H107.3z"/>
	<path class="st1" d="M129.9,121.6h2v3.1h-2V121.6z M129.9,130.4h2v17.1h-2V130.4z"/>
	<path class="st1" d="M141,146.1c2.3,0,3.7-1.1,3.7-2.9c0-2.4-2.1-2.6-5.1-3.8c-2.7-1-4-2.5-4-4.7c0-2.8,2.3-4.7,5.7-4.7
		c1.6,0,3.2,0.5,4.9,1.4v2c-1.8-1.1-3.5-1.7-5-1.7c-2.1,0-3.7,1.2-3.7,2.9c0,1.7,1.5,2.5,4.5,3.5c3.2,1.1,4.7,2.2,4.7,4.8
		c0,3-2.2,4.9-5.9,4.9c-1.9,0-3.5-0.5-5.2-1.5v-2C137.4,145.6,139.1,146.1,141,146.1z"/>
	<path class="st1" d="M150.4,121.6h2v3.1h-2V121.6z M150.4,130.4h2v17.1h-2V130.4z"/>
	<path class="st1" d="M165.3,130.1c5.2,0,9.3,3.9,9.3,8.9c0,2.4-1,4.7-2.8,6.3c-1.8,1.7-4.1,2.6-6.6,2.6c-5.2,0-9.3-3.9-9.3-8.9
		C156,134,160.1,130.1,165.3,130.1z M165.3,146.1c3.9,0,7.1-3.1,7.1-7.1c0-4-3.2-7.2-7.1-7.2c-4,0-7.2,3.1-7.2,7.2
		C158.2,143,161.4,146.1,165.3,146.1z"/>
	<path class="st1" d="M178.1,130.4h2v2.7c1.7-2,3.7-3,6.2-3c4.1,0,6.4,2.5,6.4,7v10.4h-2V138c0-4.1-1.5-6.1-4.6-6.1
		c-2.5,0-4.5,1.2-6,3.6v12.1h-2V130.4z"/>
	<path class="st1" d="M220.9,148c-3.1,0-6-0.8-8.4-2.3c-4-2.5-6.3-6.6-6.3-11.2c0-3.5,1.5-6.9,4.2-9.4c2.8-2.6,6.4-3.9,10.5-3.9
		c3.1,0,6.2,0.8,9.5,2.4v2.2c-3.5-1.8-6.6-2.7-9.6-2.7c-2.6,0-4.9,0.7-6.9,1.9c-3.4,2.2-5.3,5.7-5.3,9.6c0,3.1,1.3,6,3.5,8.2
		c2.2,2.2,5.3,3.4,8.8,3.4c2.9,0,6-0.9,9.6-2.7v2.2C227.2,147.2,224.1,148,220.9,148z"/>
	<path class="st1" d="M234,121.6h2v25.9h-2V121.6z"/>
	<path class="st1" d="M241,121.6h2v3.1h-2V121.6z M241,130.4h2v17.1h-2V130.4z"/>
	<path class="st1" d="M247.7,130.4h2v2.7c1.7-2,3.7-3,6.2-3c4.1,0,6.4,2.5,6.4,7v10.4h-2V138c0-4.1-1.5-6.1-4.6-6.1
		c-2.5,0-4.5,1.2-6,3.6v12.1h-2V130.4z"/>
	<path class="st1" d="M267,121.6h2v3.1h-2V121.6z M267,130.4h2v17.1h-2V130.4z"/>
	<path class="st1" d="M282.1,147.9c-5.5,0-9.5-3.7-9.5-8.9c0-4.9,4-8.9,9.6-8.9c1.4,0,2.7,0.3,4,0.8v2.1c-1.4-0.8-2.7-1.1-4.3-1.1
		c-4,0-7.2,3.1-7.2,7.2c0,4.1,3.2,7.1,7.2,7.1c1.5,0,3-0.5,4.7-1.4v2.1C285.2,147.5,283.7,147.9,282.1,147.9z"/>
	<path class="st1" d="M294,146.1c2.3,0,3.7-1.1,3.7-2.9c0-2.4-2.1-2.6-5.1-3.8c-2.7-1-4-2.5-4-4.7c0-2.8,2.3-4.7,5.7-4.7
		c1.6,0,3.2,0.5,4.9,1.4v2c-1.8-1.1-3.5-1.7-5-1.7c-2.1,0-3.7,1.2-3.7,2.9c0,1.7,1.5,2.5,4.5,3.5c3.2,1.1,4.7,2.2,4.7,4.8
		c0,3-2.2,4.9-5.9,4.9c-1.9,0-3.5-0.5-5.2-1.5v-2C290.4,145.6,292.1,146.1,294,146.1z"/>
</g>
</svg>
