<?xml version="1.0" encoding="UTF-8"?>
<svg id="Layer_1" xmlns="http://www.w3.org/2000/svg" version="1.1" viewBox="0 0 342 150">
  <!-- Generator: Adobe Illustrator 29.1.0, SVG Export Plug-In . SVG Version: 2.1.0 Build 142)  -->
  <defs>
    <style>
      .st0 {
        fill: #fff;
      }

      .st1 {
        fill: #8a2432;
      }
    </style>
  </defs>
  <path class="st0" d="M312.6,69.3l-27.6-11.5-11,5.2-12.8,4.5s-16.4,5.4-25.4,7.1c-9,1.8-12.1,2.8-25.6,4.3s-24.5,2.6-33.7,3-20,.4-27.9,0-22.6-2.2-32.6-3.4-16.6-2-23.8-3.3c-7.1-1.3-25.5-4-25.5-4l-13.3-2.2-14.6-3-15.1-3.4-21.7-5.5,16.6,6.6s18.9,7,20.5,7.6,17.1,5.9,17.1,5.9l14.7,4.8,14.3,4.5,21.6,6,19.4,4.4,17.8,3.5,11.1,1.8s21.5,2.5,40.2.3c18.6-2.3,31.5-4.3,31.5-4.3l23.1-5.4,16.8-4.9,18.1-6.5,17.3-6.9,9.4-4.5,1.1-.7Z"/>
  <path class="st1" d="M28.8,36l22.6,9,22.2-9.4,22.8-7.2,21.4-5s25-4.6,36.2-5.2,31.8-1.2,42.8,0,32.4,4.4,32.4,4.4l35.6,6.8,30,7,28.6,7.2,16.8,4.8-23.2-9-19.2-7.2-18.8-6.4-17.8-5.6-22.6-6.4-18.8-4.6-22.5-4.2s-29.8-6.4-65-.6c-35.2,5.8-21.8,3.4-21.8,3.4l-12.8,3-17.4,4.8-18.4,6-15.2,6.2-16.4,7-1.5,1.2Z"/>
  <g>
    <path class="st0" d="M31.3,121.6h2.3l19.9,22.6v-22.6h2.2v25.9h-2l-20.1-22.9v22.9h-2.2v-25.9h0Z"/>
    <path class="st0" d="M68.9,147.9c-5.4,0-8.9-3.6-8.9-9.2s3.4-8.6,8.4-8.6,7.8,3.2,7.8,8.2h0c0,.1-14,.1-14,.1v.2c0,4.6,2.9,7.5,6.8,7.5s4.6-.8,6.9-2.5v2.1c-2.4,1.5-4.6,2.2-7,2.2ZM73.8,136.7c-.4-3.1-2.7-5-5.6-5s-5.4,2-5.8,5h11.4Z"/>
    <path class="st0" d="M77.3,130.4h2.1l5.9,14,5.7-14h1.1l5.3,14,6.3-14h2.2l-8,17.5h-1.1l-5.2-13.9-5.6,13.9h-1.1l-7.6-17.5Z"/>
    <path class="st0" d="M107.3,121.6l9.3,21.7,9.4-21.7h2.3l-11.5,26.4h-.4l-11.4-26.4h2.3Z"/>
    <path class="st0" d="M129.9,121.6h2v3.1h-2v-3.1ZM129.9,130.4h2v17.1h-2v-17.1Z"/>
    <path class="st0" d="M141,146.1c2.3,0,3.7-1.1,3.7-2.9s-2.1-2.6-5.1-3.8c-2.7-1-4-2.5-4-4.7s2.3-4.7,5.7-4.7,3.2.5,4.9,1.4v2c-1.8-1.1-3.5-1.7-5-1.7s-3.7,1.2-3.7,2.9,1.5,2.5,4.5,3.5c3.2,1.1,4.7,2.2,4.7,4.8s-2.2,4.9-5.9,4.9-3.5-.5-5.2-1.5v-2c1.8,1.3,3.5,1.8,5.4,1.8Z"/>
    <path class="st0" d="M150.4,121.6h2v3.1h-2v-3.1ZM150.4,130.4h2v17.1h-2v-17.1Z"/>
    <path class="st0" d="M165.3,130.1c5.2,0,9.3,3.9,9.3,8.9s-1,4.7-2.8,6.3c-1.8,1.7-4.1,2.6-6.6,2.6-5.2,0-9.3-3.9-9.3-8.9.1-5,4.2-8.9,9.4-8.9ZM165.3,146.1c3.9,0,7.1-3.1,7.1-7.1s-3.2-7.2-7.1-7.2-7.2,3.1-7.2,7.2c0,4,3.3,7.1,7.2,7.1Z"/>
    <path class="st0" d="M178.1,130.4h2v2.7c1.7-2,3.7-3,6.2-3,4.1,0,6.4,2.5,6.4,7v10.4h-2v-9.5c0-4.1-1.5-6.1-4.6-6.1s-4.5,1.2-6,3.6v12.1h-2v-17.2h0Z"/>
    <path class="st0" d="M220.9,148c-3.1,0-6-.8-8.4-2.3-4-2.5-6.3-6.6-6.3-11.2s1.5-6.9,4.2-9.4c2.8-2.6,6.4-3.9,10.5-3.9s6.2.8,9.5,2.4v2.2c-3.5-1.8-6.6-2.7-9.6-2.7s-4.9.7-6.9,1.9c-3.4,2.2-5.3,5.7-5.3,9.6s1.3,6,3.5,8.2,5.3,3.4,8.8,3.4,6-.9,9.6-2.7v2.2c-3.3,1.5-6.4,2.3-9.6,2.3Z"/>
    <path class="st0" d="M234,121.6h2v25.9h-2v-25.9Z"/>
    <path class="st0" d="M241,121.6h2v3.1h-2v-3.1ZM241,130.4h2v17.1h-2v-17.1Z"/>
    <path class="st0" d="M247.7,130.4h2v2.7c1.7-2,3.7-3,6.2-3,4.1,0,6.4,2.5,6.4,7v10.4h-2v-9.5c0-4.1-1.5-6.1-4.6-6.1s-4.5,1.2-6,3.6v12.1h-2v-17.2h0Z"/>
    <path class="st0" d="M267,121.6h2v3.1h-2v-3.1ZM267,130.4h2v17.1h-2v-17.1Z"/>
    <path class="st0" d="M282.1,147.9c-5.5,0-9.5-3.7-9.5-8.9s4-8.9,9.6-8.9,2.7.3,4,.8v2.1c-1.4-.8-2.7-1.1-4.3-1.1-4,0-7.2,3.1-7.2,7.2s3.2,7.1,7.2,7.1,3-.5,4.7-1.4v2.1c-1.4.6-2.9,1-4.5,1Z"/>
    <path class="st0" d="M294,146.1c2.3,0,3.7-1.1,3.7-2.9s-2.1-2.6-5.1-3.8c-2.7-1-4-2.5-4-4.7s2.3-4.7,5.7-4.7,3.2.5,4.9,1.4v2c-1.8-1.1-3.5-1.7-5-1.7s-3.7,1.2-3.7,2.9,1.5,2.5,4.5,3.5c3.2,1.1,4.7,2.2,4.7,4.8s-2.2,4.9-5.9,4.9-3.5-.5-5.2-1.5v-2c1.8,1.3,3.5,1.8,5.4,1.8Z"/>
  </g>
</svg>